<?xml version="1.0" encoding="utf-8"?>
<!-- Generator: Adobe Illustrator 28.0.0, SVG Export Plug-In . SVG Version: 6.00 Build 0)  -->
<svg version="1.1" id="Layer_1" xmlns="http://www.w3.org/2000/svg" xmlns:xlink="http://www.w3.org/1999/xlink" x="0px" y="0px"
	 viewBox="0 0 595.3 105" style="enable-background:new 0 0 595.3 105;" xml:space="preserve">
<style type="text/css">
	.st0{fill:#FEFEFE;}
	.st1{fill:#FDFDFD;}
	.st2{fill:#E9E9E9;}
	.st3{fill:#F9F9F9;}
	.st4{fill:#F8F8F8;}
	.st5{fill:#F7F7F7;}
	.st6{fill:#EEEEEE;}
	.st7{fill:#F4F4F4;}
	.st8{fill:#F2F2F2;}
</style>
<path class="st0" d="M595.5,46.6c0,6.1,0,12.2,0,18.4c-22.4,0-44.8,0-67.3-0.1c-0.2-0.4-0.1-0.8-0.3-1.1c-0.2-0.2-0.6-0.1-1.2-0.2
	c0.4,0.6,0.7,1,0.9,1.4c-42.9,0-85.9,0-128.9-0.1c-0.7-0.3-1.3-0.7-1.9-0.8c-0.4-0.1-0.9,0.1-1.3,0c-0.8-0.1-1.1,0.1-1.1,0.9
	c-119.2,0-238.4,0-357.8-0.1c-1.2-1-2.4-1.8-3.1-2.4c-2.4-0.2-4.2,0-6,0.7c0.3,0.2,0.7,0.4,1.1,0.6c-1.1,0.7-1.7,0.4-1.9-1
	c-1.6-0.2-3.1-0.3-4.7-0.5c-0.2,0-0.4-0.1-0.5-0.2c-0.6-0.5-1.2-1.1-1.7-1.6c0.9-1.3,0.9-1.8-0.1-3.1c-1.5,0.6-2.9,1.2-4.3,1.9
	c-0.5,0.2-1.2,0.5-1.5,1c-0.6,1.3-1.8,1-2.8,1.1c-0.3,0-0.7-0.5-1-0.8c-0.1-0.1,0.1-0.6,0.2-0.6c1.1-0.2,1.9-1.8,3.4-1
	c-0.3-0.4-0.6-0.6-0.9-0.9c-0.2-0.2-0.4-0.5-0.7-0.8c0.2-0.2,0.5-0.5,0.7-0.6c1-0.4,2.2-0.6,3.1-1.2c1.1-0.7,2.2-0.7,3.3-0.7
	c0.8,0,1.3,0.6,1.5,1.5c0.2,1,0.6,2,1.2,2.8c0.4,0.4,1.5,0.5,2.2,0.3c0.5-0.2,0.7-1,0.2-1.7c-0.1-0.2,0-0.8,0.2-1
	c0.4-0.4,1-0.7,1.6-1c0.4,0.6,0.7,1.2,0.9,1.8c-0.5,0.2-0.9,0.5-1.4,0.7c0.4,0.4,0.7,0.6,0.9,0.8c0.3,0.3,0.4,0.6,0.7,0.9
	c1,1,2.2,0.7,2.6-0.6c1.3,0.1,2.6,0.3,3.8,0.4c0.8,0.1,1.7,0.1,2.5,0.1c1.5,0,3,0.3,4.5,0.1c1.6-0.2,2.8-1.1,3.7-2.4
	c0.3-0.5,1-0.7,1.5-1c0.2-0.1,0.4-0.2,0.6-0.3c0.7-0.4,1.3-0.9,2-1c2.4-0.6,4.5-1.5,5.6-3.9c0.3-0.7,0.9-1,1.8-0.5
	c0.8,0.5,1.6,0.9,2.4,1.2c1.8,0.7,3.7,1.2,5.6,0.6c2.6-0.8,5.1-1.5,7.7-2.4c1.4-0.5,2.8-0.6,4.2,0c0.9,0.4,1.9,0.4,2.8,0.8
	c0.8,0.4,1.7,0.8,2.4,1.4c0.9,0.9,1.7,2,2.3,3.2c0.5,1.1,1.4,1.5,2.4,1.8c1.4,0.3,2.9,0.5,4.3,0.5c2,0,4-0.4,6-0.4
	c1.6,0,2.7-0.6,3.8-1.6c0.8-0.7,2.2-1.2,3.3-1.2c3.1,0,6.2,0.4,9.3,0.3c2.7-0.1,5.3-0.6,7.9-1.1c2.4-0.5,5-1,6.9-2.6
	c1.6-1.4,3.4-2.2,5.5-2.4c1.3-0.2,2.2-0.8,3.1-1.7c0.4-0.4,0.8-0.7,1.3-0.9c1.5-1,3.3-1,5-1.2c1.8-0.2,3.6-0.3,5.5-0.5
	c3.2-0.3,6.4-0.7,9.5-0.9c1.7-0.1,3.2-0.6,4.5-1.8c0.7-0.7,1.6-1,2.6-0.6c1.3,0.6,2.7,1.2,4,1.9c2.6,1.3,5.3,2.4,8.3,2.2
	c0.3,0,0.7,0.1,1,0.2c1.8,0.7,3.4,0.7,5-0.5c2.7-1.9,5.7-2.7,9.1-2.2c0.9,0.1,1.9-0.1,2.7-0.5c2.2-1.2,4.4-1.6,6.8-1.2
	c2.2,0.3,4.3,0.7,6.5,1.1c2.1,0.4,4.4,0.4,6.3,1.8c0.6,0.5,1.5,0.8,2.2,1c1.9,0.5,3.9,0.8,5.8,1.3c2.7,0.8,5.3,1.7,7.9,2.8
	c2.8,1.1,5.7,1.1,8.7,1c3-0.1,5.8,0.9,8.6,2c2.2,0.9,4.5,1.7,6.8,2.1c2.1,0.4,4.2-0.3,6.2-1.1c2-0.9,3.9-1.3,5.4,0.8
	c0.1,0.1,0.3,0.3,0.5,0.3c2.5,1.1,5.1,2.2,7.6,3.3c2.2,1,4.4,1.1,6.6,0.2c2.7-1,5.4-1.8,8.1-2.7c1.1-0.3,2.2-0.4,3.2-0.9
	c1.4-0.8,2.7-0.8,4.1-0.2c0.8,0.3,1.6,0.8,2.5,1c2.2,0.5,4.4,1,6.6,1.4c2.3,0.4,4.5,1,6.8,1.1c3,0.1,5.7,1,8.3,2.3c2,1,3.9,1,5.8,0
	c3.3-1.8,6.3-4,8.8-6.7c0.8-0.8,1.5-1,2.5-0.5c0.4,0.2,0.7,0.4,1.1,0.6c2.6,1.2,5.3,1.5,8.1,1.1c1.2,0.8,2.4,0.4,3.1-0.8
	c2.9-0.9,5.7-1.6,8.4-2.6c2.3-0.9,4.6-1.4,7.1-1.3c0.7,0,1.4,0.1,2.1-0.1c2.1-0.5,4.1-1.2,6.1-1.8c4.1-1.3,8.3-2.3,12.6-2.8
	c3.1-0.4,6.2-0.8,9.2-1.2c2.4-0.3,4.8-0.5,6.9-1.9c0.5-0.3,1.1-0.6,1.7-0.8c0.5-0.1,1.2-0.2,1.6,0.1c1.2,0.8,2.4,1,3.8,1
	c0.6,0,1.2,0.2,1.7,0.5c1.6,1.1,3.4,1.6,5.3,1.6c0.9,0,1.9,0.2,2.8,0.4c3.3,0.6,6.5,0.5,9.5-1.4c2.6-1.6,5.4-2.2,8.5-1.6
	c0.7,0.1,2.4-0.6,2.7-1.1c1.2,0,2.5,0,3.8,0.1c1.3,0.5,2.6,0.9,3.8,1.3c1,0.3,2,0.7,3.1,0.7c1.8,0,3.5,0.5,5.1,1.3
	c1.2,0.6,2.5,1.1,3.8,1.3c2.3,0.4,4.5,1.1,6.7,2.2c1.9,0.9,3.8,1.8,5.9,2.5c1.3,0.4,2.7,0.4,4,0.5c1.2,0.1,2.5,0,3.7,0.2
	c1.5,0.3,3,0.9,4.5,1.4c0.4,0.1,1,0.1,1.2,0.4c1.1,1,2.4,1.3,3.8,1.5c2.2,0.4,4.3,0.8,6.5,1.3c1,0.2,1.9,0.4,2.9-0.1
	c2.4-1.2,4.9-2.3,7.4-3.5c2.9-1.3,5.8-1.4,8.7-0.1c1.3,0.6,2.8,1.2,4.2,1.1c1.4-0.1,2.6,0,3.8,0.5c2.6,1.1,5.3,1.7,8.1,1.7
	c0.9,0,1.7-0.2,2.6-0.2c2.4,0,4.8,0,7.1,0.6c3.3,0.9,6.7,1.4,10,2.1c2.3,0.5,4.5,1,6.8,1.4c1.8,0.3,3.5,0.8,5.3,0.9
	c1.2,0.1,2.5-0.2,3.7-0.5c0.9-0.2,1.8-0.7,2.6-1.2c0.8-0.4,1.5-1,2.2-1.5c1.4-1,2.7-2.3,4.2-3c4.1-1.9,8.3-3.6,12.4-5.3
	C589.5,47,592.3,45.8,595.5,46.6 M393.9,57.3c-0.1-0.3-0.3-0.7-0.5-1.1c-0.9,0.8-2.4,0.4-2.7,1.9c0.5,0.1,1.1,0.2,1.7,0.3
	c0.4,0.2,0.8,0.4,1.2,0.6c0.2-0.4,0.4-0.6,0.5-0.9C394.1,58,394,57.7,393.9,57.3 M62.7,60.8c-0.4-0.2-0.8-0.4-1.1-0.5
	c-0.5,0.3-1,0.5-1.6,0.8c1.2,0.1,2.3,0.2,3.4,0.3c0-0.1,0.1-0.2,0.1-0.3C63.2,61,63,60.9,62.7,60.8 M395.6,56.9
	c0.4,0.2,0.9,0.3,1.3,0.5c0.1-0.2,0.1-0.5,0.2-0.7c-0.5,0-0.9-0.1-1.4-0.1C395.7,56.7,395.6,56.7,395.6,56.9 M140.3,62.6
	c-0.5,0.2-1.1,0.4-1.6,0.6c0,0.1,0.1,0.2,0.1,0.4c0.8-0.3,1.7-0.5,2.5-0.8c0-0.1,0-0.2-0.1-0.4C141,62.5,140.7,62.5,140.3,62.6
	 M141.8,57.1c-0.4,0-0.9,0-1.3,0c0,0.1-0.1,0.3-0.1,0.4c0.4,0.3,0.8,0.5,1.3,0.9C141.8,57.8,141.8,57.5,141.8,57.1 M81.7,56.1
	c-0.4,0.1-0.8,0.2-1.1,0.3c0,0.1,0.1,0.4,0.1,0.4c0.4-0.1,0.8-0.1,1.1-0.2c0.2-0.1,0.4-0.2,0.9-0.4C82.2,56.2,82.1,56.1,81.7,56.1
	 M526.8,59.2c0.3,0.4,0.6,0.8,1,1.3C528.3,59.2,527.8,59.1,526.8,59.2 M21,60.4c0.4,0.1,0.8,0.3,1.4,0.5
	C21.8,59.7,21.8,59.7,21,60.4z"/>
<path class="st1" d="M0.2,43.9c2.2,0.3,4.4,0.8,6.2,2.3c1.8,1.5,3.7,2.7,5.9,3.3c1.4,0.4,3,0.3,4.4,0.9c2.5,1,5,2.2,7.4,3.5
	c0.7,0.4,1.3,1.1,1.9,1.7c-0.5,0.4-1,0.7-1.5,1.1c-0.2,0.2-0.4,0.8-0.2,1c0.5,0.7,0.3,1.5-0.2,1.7c-0.7,0.2-1.8,0.1-2.2-0.3
	c-0.6-0.7-1-1.8-1.2-2.8c-0.2-0.9-0.7-1.5-1.5-1.5c-1.1,0-2.2,0-3.3,0.7c-0.9,0.6-2,0.8-3.1,1.2c-0.3,0.1-0.5,0.4-0.7,0.6
	c0.2,0.3,0.4,0.5,0.7,0.8c0.3,0.3,0.6,0.5,0.9,0.9c-1.5-0.8-2.2,0.8-3.4,1c-0.1,0-0.3,0.6-0.2,0.6c0.3,0.3,0.7,0.8,1,0.8
	c1-0.1,2.2,0.2,2.8-1.1c0.2-0.5,0.9-0.7,1.5-1c1.4-0.7,2.9-1.3,4.3-1.9c1,1.3,1,1.8,0.1,3.1c0.6,0.5,1.2,1.1,1.7,1.6
	c0.1,0.1,0.3,0.2,0.5,0.2c1.6,0.2,3.1,0.3,4.7,0.5c0.1,1.4,0.7,1.7,1.9,1c-0.4-0.2-0.7-0.4-1.1-0.6c1.8-0.7,3.6-0.8,6-0.7
	c0.7,0.6,1.8,1.4,3,2.4c-12.1,0.1-24.1,0.1-36.3,0.1c0-2.9,0-5.9,0.1-9c1.2,0.1,2-0.4,2.6-1.3c0.5-0.7,0.3-1.1-0.5-1.1
	c-0.7,0-1.5,0-2.2,0C0.2,50.4,0.2,47.2,0.2,43.9z"/>
<path class="st2" d="M0.2,53.7c0.7-0.1,1.5-0.1,2.2-0.1c0.8,0.1,1,0.4,0.5,1.1c-0.6,0.9-1.4,1.4-2.6,1.2C0.2,55.2,0.2,54.5,0.2,53.7
	z"/>
<path class="st3" d="M394.5,64.9c-0.1-0.8,0.2-1,1-0.9c0.4,0.1,0.9-0.1,1.3,0c0.6,0.2,1.2,0.5,1.8,0.8
	C397.2,64.9,395.9,64.9,394.5,64.9z"/>
<path class="st4" d="M527.7,64.9c-0.3-0.4-0.5-0.7-1-1.4c0.6,0.1,1,0,1.2,0.2c0.2,0.2,0.1,0.6,0.2,1.1
	C528,64.9,527.9,64.9,527.7,64.9z"/>
<path class="st1" d="M27.1,57.5c0.9,0.6,1.7,1.2,2.6,1.9c-0.2,1.3-1.4,1.5-2.4,0.6c-0.3-0.3-0.5-0.6-0.7-0.9
	c-0.2-0.2-0.5-0.5-0.9-0.8C26.2,58,26.6,57.7,27.1,57.5z"/>
<path class="st5" d="M392.3,58.4c-0.5-0.1-1-0.2-1.6-0.3c0.4-1.5,1.8-1.1,2.7-1.9c0.2,0.4,0.3,0.8,0.4,1.2c-0.6,0.3-1.2,0.4-1.8,0.6
	C392.1,58,392.2,58.2,392.3,58.4z"/>
<path class="st4" d="M62.8,60.8c0.3,0.1,0.5,0.3,0.7,0.4c0,0.1-0.1,0.2-0.1,0.3c-1.1-0.1-2.2-0.2-3.4-0.3c0.6-0.3,1.1-0.6,1.6-0.8
	C61.9,60.4,62.3,60.6,62.8,60.8z"/>
<path class="st5" d="M345.6,54.4c0.9-0.3,1.9-0.6,2.9-0.8C348,54.8,346.7,55.1,345.6,54.4z"/>
<path class="st6" d="M392.4,58.4c-0.2-0.2-0.3-0.4-0.3-0.5c0.6-0.2,1.1-0.3,1.8-0.5c0.2,0.2,0.3,0.4,0.3,0.6
	c-0.1,0.3-0.3,0.6-0.5,0.9C393.3,58.9,392.9,58.7,392.4,58.4z"/>
<path class="st7" d="M395.6,56.8c0-0.1,0.1-0.2,0.1-0.2c0.5,0,0.9,0.1,1.4,0.1c-0.1,0.2-0.1,0.5-0.2,0.7
	C396.5,57.3,396,57.1,395.6,56.8z"/>
<path class="st4" d="M140.4,62.5c0.4-0.1,0.6-0.1,0.9-0.1c0,0.1,0,0.2,0.1,0.4c-0.8,0.3-1.7,0.5-2.5,0.8c0-0.1-0.1-0.2-0.1-0.4
	C139.2,63,139.7,62.8,140.4,62.5z"/>
<path class="st7" d="M141.8,57.2c0,0.4,0,0.7-0.1,1.2c-0.6-0.4-1-0.6-1.3-0.9c0-0.1,0.1-0.3,0.1-0.4
	C140.9,57.1,141.4,57.1,141.8,57.2z"/>
<path class="st8" d="M81.8,56.1c0.3,0,0.4,0.1,1,0.2c-0.5,0.2-0.7,0.3-0.9,0.4c-0.4,0.1-0.7,0.2-1.1,0.2c0,0-0.1-0.3-0.1-0.4
	C80.9,56.3,81.3,56.2,81.8,56.1z"/>
<path class="st5" d="M526.9,59.2c0.9-0.1,1.4,0,0.9,1.4C527.4,60,527.1,59.6,526.9,59.2z"/>
<path class="st1" d="M21,60.3c0.8-0.6,0.8-0.6,1.4,0.6C21.8,60.6,21.4,60.5,21,60.3z"/>
</svg>
